HIERARCHY
ROOT joint_0
{
	OFFSET 0.000000 0.000000 0.000000
	CHANNELS 6 Xposition Yposition Zposition Zrotation Yrotation Xrotation 
	JOINT joint_1
	{
		OFFSET 0.587158 0.057678 95.682007
		CHANNELS 3 Zrotation Yrotation Xrotation
		JOINT joint_2
		{
			OFFSET -7.116699 -0.219910 87.157959
			CHANNELS 3 Zrotation Yrotation Xrotation
			JOINT joint_3
			{
				OFFSET -5.892822 -0.290222 87.151001
				CHANNELS 3 Zrotation Yrotation Xrotation
				JOINT joint_4
				{
					OFFSET 5.544678 -0.099609 123.768066
					CHANNELS 3 Zrotation Yrotation Xrotation
					JOINT joint_5
					{
						OFFSET 41.981201 4.519775 84.257935
						CHANNELS 3 Zrotation Yrotation Xrotation
						End Site
						{
							OFFSET 0.000000 0.000000 0.000000
						}
					}
				}
				JOINT joint_6
				{
					OFFSET 3.940918 -26.976501 69.308105
					CHANNELS 3 Zrotation Yrotation Xrotation
					JOINT joint_7
					{
						OFFSET 4.776123 -152.592468 -16.842041
						CHANNELS 3 Zrotation Yrotation Xrotation
						JOINT joint_8
						{
							OFFSET 54.421875 -30.424072 -248.864014
							CHANNELS 3 Zrotation Yrotation Xrotation
							JOINT joint_9
							{
								OFFSET 42.120117 -33.387878 -236.524963
								CHANNELS 3 Zrotation Yrotation Xrotation
								End Site
								{
									OFFSET 0.000000 0.000000 0.000000
								}
							}
						}
					}
				}
				JOINT joint_10
				{
					OFFSET 2.312012 26.904114 69.425049
					CHANNELS 3 Zrotation Yrotation Xrotation
					JOINT joint_11
					{
						OFFSET 0.971436 152.197815 -20.626953
						CHANNELS 3 Zrotation Yrotation Xrotation
						JOINT joint_12
						{
							OFFSET 49.954102 28.991455 -249.970093
							CHANNELS 3 Zrotation Yrotation Xrotation
							JOINT joint_13
							{
								OFFSET 48.146973 19.598389 -236.919922
								CHANNELS 3 Zrotation Yrotation Xrotation
								End Site
								{
									OFFSET 0.000000 0.000000 0.000000
								}
							}
						}
					}
				}
			}
		}
	}
	JOINT joint_14
	{
		OFFSET 16.305664 -89.442932 -108.224976
		CHANNELS 3 Zrotation Yrotation Xrotation
		JOINT joint_15
		{
			OFFSET -22.282471 13.437134 -412.904968
			CHANNELS 3 Zrotation Yrotation Xrotation
			JOINT joint_16
			{
				OFFSET -45.426025 14.484802 -445.892029
				CHANNELS 3 Zrotation Yrotation Xrotation
				JOINT joint_17
				{
					OFFSET 173.389404 -9.944031 -76.473001
					CHANNELS 3 Zrotation Yrotation Xrotation
					End Site
					{
						OFFSET 0.000000 0.000000 0.000000
					}
				}
			}
		}
	}
	JOINT joint_18
	{
		OFFSET 13.392822 89.408875 -108.653992
		CHANNELS 3 Zrotation Yrotation Xrotation
		JOINT joint_19
		{
			OFFSET -29.032959 24.483521 -411.977966
			CHANNELS 3 Zrotation Yrotation Xrotation
			JOINT joint_20
			{
				OFFSET -30.530029 28.986328 -446.453018
				CHANNELS 3 Zrotation Yrotation Xrotation
				JOINT joint_21
				{
					OFFSET 170.330078 33.400757 -76.698997
					CHANNELS 3 Zrotation Yrotation Xrotation
					End Site
					{
						OFFSET 0.000000 0.000000 0.000000
					}
				}
			}
		}
	}
}
MOTION
Frames: 15
Frame Time: 0.016667
-2331.702393 904.486267 1062.171021 5.647371 -1.552339 -0.116746 -0.607835 -0.183946 2.386659 -0.826322 -0.003478 -0.545516 -0.763051 -0.037097 0.364007 1.010454 -1.205235 -1.908267 0.000000 0.000000 0.000000 -2.034806 0.725599 -0.784379 0.500283 0.535353 2.031135 0.067712 -2.660495 -1.728242 0.000000 0.000000 0.000000 -2.021606 0.853171 -1.239517 0.505994 1.177062 1.570644 -0.714547 -2.091367 -2.642759 0.000000 0.000000 0.000000 -2.215016 0.221474 -3.004731 -2.336911 1.378275 -0.037983 -2.330560 -1.818701 -1.127090 0.000000 0.000000 0.000000 -2.072639 -3.224009 1.925636 -1.513890 3.638632 0.092805 -1.653676 0.434004 -0.826585 0.000000 0.000000 0.000000 
-2331.853760 904.524963 1062.166016 5.542699 -1.561113 -0.132672 -0.607572 -0.196129 2.390333 -0.826412 -0.004080 -0.546564 -0.763037 -0.036231 0.364279 1.016000 -1.203464 -1.919097 0.000000 0.000000 0.000000 -2.043652 0.751051 -0.756418 0.490364 0.558841 1.996143 0.058597 -2.626868 -1.753830 0.000000 0.000000 0.000000 -2.015886 0.877652 -1.249431 0.516302 1.201836 1.615793 -0.692046 -2.014916 -2.566054 0.000000 0.000000 0.000000 -2.181367 0.190277 -2.991106 -2.300774 1.416737 -0.033656 -2.297172 -1.836975 -1.113485 0.000000 0.000000 0.000000 -2.037660 -3.213047 1.941901 -1.477997 3.649676 0.095101 -1.619601 0.430352 -0.810586 0.000000 0.000000 0.000000 
-2331.983887 904.584778 1062.161987 5.435156 -1.572632 -0.143787 -0.604621 -0.204729 2.387746 -0.823207 -0.003424 -0.545559 -0.759951 -0.035609 0.363457 1.021301 -1.204855 -1.929136 0.000000 0.000000 0.000000 -2.054701 0.779440 -0.729826 0.480664 0.585077 1.962296 0.043765 -2.574597 -1.796634 0.000000 0.000000 0.000000 -2.015124 0.906816 -1.262140 0.525498 1.231830 1.656560 -0.664548 -1.911676 -2.475612 0.000000 0.000000 0.000000 -2.144294 0.158405 -2.987998 -2.261478 1.469085 -0.025652 -2.261553 -1.884461 -1.100571 0.000000 0.000000 0.000000 -2.000024 -3.193996 1.948395 -1.441450 3.653971 0.102729 -1.583899 0.429654 -0.794439 0.000000 0.000000 0.000000 
-2332.091797 904.662964 1062.156006 5.326095 -1.584141 -0.151962 -0.600053 -0.213224 2.383158 -0.818308 -0.000770 -0.545406 -0.755085 -0.037054 0.363180 1.026763 -1.206513 -1.939486 0.000000 0.000000 0.000000 -2.068043 0.811057 -0.704311 0.470388 0.614324 1.926712 0.024314 -2.505593 -1.852081 0.000000 0.000000 0.000000 -2.015687 0.941543 -1.277238 0.533792 1.267451 1.693265 -0.632576 -1.785498 -2.372352 0.000000 0.000000 0.000000 -2.105505 0.125441 -2.990672 -2.220583 1.527451 -0.016629 -2.224761 -1.942871 -1.087766 0.000000 0.000000 0.000000 -1.960767 -3.171644 1.949122 -1.404300 3.654797 0.112955 -1.547169 0.429673 -0.777974 0.000000 0.000000 0.000000 
-2332.165527 904.753967 1062.147949 5.222705 -1.591495 -0.159394 -0.597617 -0.230170 2.377826 -0.815281 0.002419 -0.543007 -0.752366 -0.039535 0.361339 1.031549 -1.205605 -1.948713 0.000000 0.000000 0.000000 -2.081090 0.847989 -0.679056 0.458018 0.648971 1.885248 0.005007 -2.434599 -1.905115 0.000000 0.000000 0.000000 -2.010886 0.982563 -1.296826 0.542272 1.308630 1.729340 -0.598428 -1.650447 -2.261690 0.000000 0.000000 0.000000 -2.069463 0.093382 -2.992744 -2.182466 1.579944 -0.010060 -2.190602 -1.997414 -1.075895 0.000000 0.000000 0.000000 -1.922937 -3.152013 1.948861 -1.368550 3.654707 0.123284 -1.511844 0.428296 -0.761867 0.000000 0.000000 0.000000 
-2332.198975 904.861267 1062.137939 5.125811 -1.592400 -0.165663 -0.597796 -0.260364 2.372331 -0.814755 0.006532 -0.539801 -0.752215 -0.041043 0.359388 1.036857 -1.202151 -1.959233 0.000000 0.000000 0.000000 -2.093007 0.891309 -0.653696 0.442300 0.690180 1.833759 -0.012523 -2.364850 -1.949160 0.000000 0.000000 0.000000 -2.000031 1.030254 -1.324040 0.551648 1.355711 1.767909 -0.562731 -1.508261 -2.145997 0.000000 0.000000 0.000000 -2.037305 0.062574 -2.993020 -2.148304 1.620219 -0.007946 -2.159959 -2.038040 -1.064770 0.000000 0.000000 0.000000 -1.886583 -3.137654 1.946567 -1.334229 3.654395 0.134995 -1.477968 0.424784 -0.745992 0.000000 0.000000 0.000000 
-2332.198730 904.982300 1062.125000 5.035001 -1.589367 -0.171060 -0.599752 -0.298450 2.367021 -0.815921 0.011773 -0.535712 -0.753905 -0.044924 0.356392 1.041841 -1.195614 -1.969403 0.000000 0.000000 0.000000 -2.106301 0.940041 -0.628946 0.424494 0.736715 1.776448 -0.029963 -2.292703 -1.990784 0.000000 0.000000 0.000000 -1.985387 1.084374 -1.355839 0.561268 1.408706 1.805905 -0.524829 -1.357277 -2.022770 0.000000 0.000000 0.000000 -2.008218 0.033137 -2.993128 -2.117322 1.654183 -0.007767 -2.132283 -2.075392 -1.054760 0.000000 0.000000 0.000000 -1.851548 -3.125877 1.943072 -1.301213 3.653217 0.146734 -1.445432 0.419588 -0.730389 0.000000 0.000000 0.000000 
-2332.167236 905.106262 1062.112061 4.950462 -1.583871 -0.176999 -0.604204 -0.344874 2.364792 -0.819945 0.018058 -0.533838 -0.758230 -0.050286 0.354455 1.047137 -1.186206 -1.980461 0.000000 0.000000 0.000000 -2.119530 0.991181 -0.608226 0.407437 0.785829 1.722694 -0.048620 -2.220846 -2.039518 0.000000 0.000000 0.000000 -1.961038 1.141739 -1.389100 0.570147 1.463538 1.839968 -0.485146 -1.202329 -1.892102 0.000000 0.000000 0.000000 -1.981063 0.003901 -2.992598 -2.088170 1.689221 -0.007833 -2.106639 -2.121459 -1.046140 0.000000 0.000000 0.000000 -1.818937 -3.115375 1.943537 -1.269864 3.651045 0.152455 -1.414843 0.414537 -0.715690 0.000000 0.000000 0.000000 
-2332.099365 905.228149 1062.100952 4.873987 -1.575380 -0.184089 -0.610906 -0.402301 2.366782 -0.826706 0.027483 -0.534934 -0.764883 -0.057521 0.355671 1.052293 -1.176423 -1.991246 0.000000 0.000000 0.000000 -2.137605 1.042898 -0.596238 0.392426 0.835306 1.677384 -0.071164 -2.136676 -2.100364 0.000000 0.000000 0.000000 -1.930332 1.201336 -1.424015 0.577377 1.519552 1.866442 -0.441968 -1.039054 -1.747403 0.000000 0.000000 0.000000 -1.955834 -0.023279 -2.991625 -2.061071 1.723203 -0.006331 -2.083168 -2.182980 -1.039361 0.000000 0.000000 0.000000 -1.789506 -3.106843 1.951222 -1.240331 3.647812 0.147657 -1.386542 0.410913 -0.702298 0.000000 0.000000 0.000000 
-2332.000244 905.352966 1062.088989 4.804171 -1.564155 -0.191585 -0.618771 -0.467868 2.371280 -0.834896 0.037445 -0.537661 -0.772780 -0.066661 0.357995 1.056977 -1.164341 -2.001296 0.000000 0.000000 0.000000 -2.161162 1.097473 -0.588904 0.378315 0.887217 1.636158 -0.094908 -2.053072 -2.168472 0.000000 0.000000 0.000000 -1.894842 1.263935 -1.460321 0.583897 1.577825 1.888904 -0.396959 -0.871420 -1.595252 0.000000 0.000000 0.000000 -1.932667 -0.050505 -2.990357 -2.035965 1.758305 -0.004635 -2.061866 -2.254240 -1.034092 0.000000 0.000000 0.000000 -1.762634 -3.100197 1.962858 -1.212512 3.644032 0.136543 -1.360302 0.407137 -0.689802 0.000000 0.000000 0.000000 
-2331.888916 905.481628 1062.073975 4.739812 -1.552764 -0.198783 -0.626144 -0.538546 2.373871 -0.842496 0.049340 -0.541496 -0.779989 -0.076788 0.360725 1.060927 -1.148902 -2.010223 0.000000 0.000000 0.000000 -2.193099 1.155776 -0.575212 0.363436 0.941671 1.589874 -0.112620 -2.007953 -2.233468 0.000000 0.000000 0.000000 -1.857168 1.328129 -1.496731 0.591990 1.637575 1.916132 -0.355551 -0.720963 -1.453561 0.000000 0.000000 0.000000 -1.913347 -0.082914 -2.989330 -2.014194 1.804622 -0.002441 -2.044086 -2.327058 -1.030457 0.000000 0.000000 0.000000 -1.737190 -3.094430 1.974210 -1.185943 3.641490 0.124708 -1.335422 0.402945 -0.677833 0.000000 0.000000 0.000000 
-2331.766113 905.614868 1062.056030 4.681986 -1.541608 -0.206366 -0.632696 -0.616920 2.373510 -0.848946 0.065351 -0.545040 -0.786063 -0.091820 0.363874 1.063312 -1.126332 -2.016743 0.000000 0.000000 0.000000 -2.240850 1.220906 -0.553195 0.346785 1.000864 1.534344 -0.120470 -2.020851 -2.289541 0.000000 0.000000 0.000000 -1.818524 1.395956 -1.533274 0.602314 1.701081 1.949528 -0.318758 -0.591047 -1.325989 0.000000 0.000000 0.000000 -1.899869 -0.125451 -2.987779 -1.997145 1.874764 0.000269 -2.031948 -2.417670 -1.030314 0.000000 0.000000 0.000000 -1.713532 -3.090326 1.986468 -1.160682 3.642156 0.111858 -1.312209 0.396797 -0.666227 0.000000 0.000000 0.000000 
-2331.630859 905.751953 1062.035034 4.629134 -1.530028 -0.213649 -0.638306 -0.700740 2.370488 -0.854125 0.082435 -0.547645 -0.791012 -0.106362 0.365833 1.064430 -1.101198 -2.020989 0.000000 0.000000 0.000000 -2.298085 1.289598 -0.524819 0.329527 1.062302 1.474213 -0.122247 -2.072155 -2.342373 0.000000 0.000000 0.000000 -1.778511 1.464813 -1.569356 0.614153 1.765604 1.987637 -0.285551 -0.477617 -1.209202 0.000000 0.000000 0.000000 -1.890156 -0.173525 -2.986391 -1.983321 1.956231 0.003385 -2.023253 -2.510237 -1.031793 0.000000 0.000000 0.000000 -1.691122 -3.087257 1.998637 -1.136454 3.643877 0.097974 -1.290153 0.390221 -0.655055 0.000000 0.000000 0.000000 
-2331.502197 905.890625 1062.005005 4.580664 -1.519685 -0.219419 -0.639064 -0.775929 2.361725 -0.853842 0.097917 -0.547545 -0.790783 -0.119535 0.366346 1.064083 -1.075529 -2.022468 0.000000 0.000000 0.000000 -2.366827 1.355424 -0.490736 0.314305 1.119355 1.418650 -0.122962 -2.136458 -2.399806 0.000000 0.000000 0.000000 -1.747600 1.528228 -1.605384 0.627716 1.826101 2.033253 -0.257806 -0.389069 -1.109028 0.000000 0.000000 0.000000 -1.881718 -0.217343 -2.985879 -1.971424 2.022751 0.006186 -2.014588 -2.548329 -1.030168 0.000000 0.000000 0.000000 -1.671046 -3.081968 2.004609 -1.115855 3.642049 0.090633 -1.270793 0.386229 -0.645599 0.000000 0.000000 0.000000 
-2331.383545 906.037292 1061.959961 4.536040 -1.512497 -0.223547 -0.632972 -0.838992 2.346151 -0.846140 0.111427 -0.545817 -0.783333 -0.129985 0.365408 1.062206 -1.051192 -2.020899 0.000000 0.000000 0.000000 -2.449914 1.418636 -0.448667 0.302577 1.171847 1.371344 -0.123051 -2.223160 -2.471862 0.000000 0.000000 0.000000 -1.728771 1.584961 -1.640949 0.643664 1.881815 2.088979 -0.236926 -0.332933 -1.029314 0.000000 0.000000 0.000000 -1.874324 -0.253127 -2.987151 -1.961869 2.063553 0.010871 -2.004772 -2.491461 -1.022607 0.000000 0.000000 0.000000 -1.652941 -3.071414 2.001992 -1.099201 3.634769 0.092377 -1.254106 0.385480 -0.637981 0.000000 0.000000 0.000000 
